<svg viewBox="0 0 137 136" fill="none" xmlns="http://www.w3.org/2000/svg"><path d="M.5 68c0-37.555 30.445-68 68-68s68 30.445 68 68-30.445 68-68 68-68-30.445-68-68z" fill="#F2F5F8"/><g clip-path="url(#clip0)"><path d="M83.508 64.769c-7.086 0-12.854 5.766-12.854 12.855 0 7.088 5.768 12.854 12.854 12.854 7.087 0 12.855-5.766 12.855-12.854 0-7.09-5.768-12.855-12.855-12.855zm0 23.372c-5.798 0-10.517-4.719-10.517-10.517 0-5.799 4.719-10.518 10.517-10.518 5.799 0 10.518 4.72 10.518 10.518 0 5.798-4.719 10.517-10.518 10.517z" fill="#ffc800"/><path fill-rule="evenodd" clip-rule="evenodd" d="M85.059 77.692l3.596 3.597a1.049 1.049 0 01-1.482 1.482l-3.596-3.597-3.596 3.597a1.053 1.053 0 01-1.482 0 1.049 1.049 0 010-1.482l3.596-3.597-3.596-3.597a1.05 1.05 0 011.482-1.482l3.596 3.597 3.596-3.597a1.049 1.049 0 011.482 1.482l-3.596 3.597z" fill="#ffc800"/><path d="M89.091 56.79C82.65 49.7 74.075 45.797 64.948 45.797S47.246 49.7 40.804 56.791c-.434.476-.4 1.217.08 1.65.479.432 1.218.402 1.65-.08 5.995-6.595 13.953-10.227 22.414-10.227 8.46 0 16.419 3.632 22.414 10.227a1.17 1.17 0 001.65.082 1.17 1.17 0 00.079-1.652z" fill="#A5ADB6"/><path d="M80.14 60.656c-10.118-8.21-24.448-7.03-33.329 2.742a1.173 1.173 0 00.08 1.652 1.165 1.165 0 001.65-.077c8.166-8.986 20.836-10.038 30.126-2.503a1.164 1.164 0 001.643-.17c.41-.5.33-1.237-.17-1.644z" fill="#A5ADB6"/><path d="M71.539 65.824c-5.32-2.312-13.17-1.917-18.72 4.186a1.173 1.173 0 00.08 1.652 1.165 1.165 0 001.65-.082 14.127 14.127 0 0116.057-3.613 1.17 1.17 0 00.933-2.143zM69.388 82.542a15.069 15.069 0 01-.935-5.193c0-.517.028-1.024.078-1.529a1.167 1.167 0 00-.554-1.112 5.825 5.825 0 00-3.03-.865 5.851 5.851 0 00-5.842 5.843 5.851 5.851 0 005.843 5.843 5.798 5.798 0 004.18-1.77 1.17 1.17 0 00.26-1.217z" fill="#A5ADB6"/></g><defs><clipPath id="clip0"><path fill="#fff" transform="translate(40.5 40)" d="M0 0h56v56H0z"/></clipPath></defs></svg>